# xmcd CD database file
#
# Track frame offsets:
#	150
#	22745
#	41152
#	63777
#
# Disc length: 1093 seconds
#
# Revision: 0
# Processed by: cddbd v1.5PL3 Copyright (c) Steve Scherf et al.
# Submitted via: CDex 1.50
#
DISCID=26044304
DTITLE=おおたか静流 - あいは海
DYEAR=1999
DGENRE=Anime
TTITLE0=あいは海
TTITLE1=永遠の旅へ
TTITLE2=あいは海（Instrumental）
TTITLE3=永遠の旅へ（Instrumental）
EXTD=YEAR: 1999
EXTT0=
EXTT1=
EXTT2=
EXTT3=
PLAYORDER=
